<svg xmlns="http://www.w3.org/2000/svg" xmlns:xlink="http://www.w3.org/1999/xlink" version="1.1" x="0px" y="0px" viewBox="0 0 48 48" enable-background="new 0 0 48 48" xml:space="preserve">
<circle style="fill:#2d3cb1;" cx="5.646" cy="39.208" r="0.928"/>
<path  style="fill:#2d3cb1;" d="M45.566,27.779l-5.658-0.753c-0.195-0.022-0.371,0.067-0.475,0.216l-3.668-2.587c-0.363-0.257-0.787-0.423-1.229-0.481  l-6.755-0.898l-1.292-3.133c0.129,0.024,0.258,0.059,0.391,0.059c0.273,0,0.553-0.054,0.821-0.164  c0.534-0.221,0.95-0.636,1.172-1.168c0.222-0.533,0.224-1.121,0.002-1.654l-2.241-5.434c-0.324-0.785-0.855-1.471-1.537-1.979  l-2.334-1.745c0.095-0.055,0.175-0.133,0.217-0.234c0.051-0.122,0.051-0.261,0.001-0.383l-2.177-5.275  c-0.105-0.257-0.398-0.38-0.653-0.271l-7.97,3.288c-0.123,0.05-0.221,0.147-0.271,0.271c-0.05,0.119-0.05,0.258,0,0.38l2.177,5.275  c0.074,0.181,0.243,0.283,0.423,0.298l-0.405,4.478c-0.04,0.441,0.027,0.893,0.196,1.303l2.601,6.301l-2.054,2.668  c-0.14-0.385-0.381-0.725-0.713-0.979c-0.945-0.729-2.305-0.551-3.031,0.396l-3.583,4.655C7,30.898,6.673,31.701,6.573,32.545  l-0.344,2.895c-0.095-0.055-0.2-0.086-0.313-0.07c-0.131,0.019-0.251,0.086-0.332,0.191l-3.48,4.523  c-0.081,0.104-0.117,0.236-0.101,0.369c0.018,0.131,0.085,0.25,0.191,0.332l6.833,5.258c0.091,0.069,0.198,0.104,0.305,0.104  c0.15,0,0.298-0.066,0.396-0.195l3.48-4.521c0.081-0.104,0.117-0.237,0.101-0.369c-0.007-0.053-0.027-0.102-0.051-0.148l4.077-1.885  c0.403-0.188,0.76-0.471,1.03-0.822l4.155-5.399l3.342,0.444c-0.259,0.305-0.439,0.681-0.496,1.104  c-0.157,1.183,0.676,2.271,1.856,2.429l5.825,0.775c0.207,0.027,0.415,0.041,0.623,0.041c0.638,0,1.271-0.129,1.861-0.383  l2.679-1.148c0,0.247,0.174,0.463,0.426,0.497l5.657,0.754c0.022,0.003,0.044,0.004,0.065,0.004c0.109,0,0.217-0.036,0.305-0.103  c0.105-0.081,0.174-0.2,0.191-0.331l1.138-8.548C46.032,28.067,45.84,27.816,45.566,27.779z M13.025,5.912l7.046-2.906l1.795,4.352  l-7.046,2.906L13.025,5.912z M15.101,15.971l0.446-4.926l6.152-2.538l2.8,2.094c0.537,0.402,0.956,0.941,1.211,1.562l2.241,5.433  c0.119,0.287,0.117,0.604-0.001,0.89c-0.119,0.286-0.343,0.511-0.63,0.628c-0.59,0.244-1.271-0.037-1.516-0.63l-1.363-3.304  c-0.105-0.256-0.396-0.38-0.653-0.271c-0.255,0.105-0.376,0.397-0.271,0.652l1.361,3.302c0,0.001,0,0.001,0,0.001s0,0,0,0.001  l2.089,5.063c0.065,0.16,0.065,0.334,0,0.492s-0.188,0.281-0.348,0.348c-0.159,0.064-0.333,0.064-0.492-0.001  c-0.157-0.063-0.278-0.188-0.346-0.345l-2.647-6.418c-0.104-0.256-0.397-0.379-0.652-0.271c-0.255,0.105-0.376,0.397-0.271,0.652  l2.993,7.256c0.065,0.158,0.065,0.334,0,0.492s-0.188,0.281-0.349,0.348c-0.328,0.131-0.703-0.021-0.838-0.35l-0.098-0.232  c0-0.001,0-0.002,0-0.003s-0.001-0.001-0.001-0.002l-2.648-6.422c-0.105-0.256-0.397-0.377-0.653-0.271  c-0.255,0.105-0.376,0.397-0.271,0.652l1.661,4.028c-0.075-0.092-0.16-0.178-0.26-0.254c-0.4-0.31-0.896-0.396-1.355-0.294  l-1.344-3.256c-0.104-0.257-0.396-0.381-0.652-0.271c-0.255,0.105-0.376,0.397-0.271,0.652l0.96,2.326  c-0.446-0.213-0.959-0.221-1.396-0.017l-2.46-5.964C15.118,16.542,15.075,16.253,15.101,15.971z M22.379,24.887  c-0.001-0.038,0-0.076-0.004-0.115l0.047,0.114C22.408,24.885,22.395,24.887,22.379,24.887z M23.808,27.355  c0.008-0.016,0.019-0.027,0.025-0.042c0.044,0.022,0.091,0.044,0.139,0.063L23.808,27.355z M9.242,44.945l-6.041-4.648l2.872-3.73  l6.04,4.648L9.242,44.945z M17.574,37.595c-0.172,0.224-0.4,0.403-0.657,0.522l-4.49,2.076l-5.272-4.059l0.413-3.473  c0.079-0.666,0.337-1.299,0.746-1.83l3.583-4.656c0.391-0.508,1.122-0.604,1.629-0.213c0.246,0.188,0.403,0.463,0.442,0.771  c0.04,0.309-0.042,0.612-0.23,0.857c0,0,0,0.002-0.001,0.003l-2.178,2.829c-0.168,0.22-0.128,0.533,0.091,0.701  c0.091,0.069,0.198,0.104,0.305,0.104c0.15,0,0.298-0.067,0.396-0.194l5.52-7.173c0.217-0.279,0.621-0.335,0.902-0.118  s0.333,0.619,0.117,0.9l-4.232,5.5c-0.168,0.219-0.127,0.531,0.092,0.701c0.218,0.167,0.533,0.127,0.701-0.092l4.231-5.5l0,0  c0,0,0,0,0.001,0l0.554-0.722c0.104-0.136,0.255-0.223,0.426-0.245c0.169-0.018,0.339,0.023,0.476,0.129  c0.279,0.217,0.333,0.619,0.116,0.9l-4.394,5.709c-0.168,0.219-0.127,0.532,0.091,0.701c0.091,0.068,0.198,0.104,0.305,0.104  c0.15,0,0.299-0.066,0.396-0.194l4.238-5.507c0,0,0.001,0,0.001-0.002c0.062-0.08,0.146-0.138,0.234-0.181  c0.028-0.014,0.06-0.021,0.088-0.03c0.068-0.021,0.141-0.029,0.213-0.026c0.128,0.006,0.256,0.036,0.364,0.121  c0.108,0.083,0.171,0.196,0.209,0.319c0.023,0.071,0.032,0.146,0.029,0.221c-0.001,0.027,0,0.056-0.005,0.082  c-0.019,0.1-0.052,0.197-0.116,0.279c0,0,0,0-0.001,0.002l-1.033,1.342c-0.002,0.002-0.004,0.005-0.006,0.007  c-0.001,0.001-0.001,0.003-0.002,0.004l-3.372,4.381c-0.168,0.22-0.128,0.532,0.091,0.701c0.091,0.069,0.198,0.104,0.306,0.104  c0.149,0,0.298-0.067,0.396-0.195l3.376-4.387c0.104-0.135,0.254-0.222,0.424-0.242c0.168-0.022,0.339,0.021,0.476,0.127  c0.279,0.217,0.333,0.619,0.117,0.9L17.574,37.595z M35.141,36.297c-0.617,0.266-1.295,0.358-1.959,0.269l-5.824-0.774  c-0.635-0.084-1.084-0.67-0.998-1.305c0.084-0.636,0.664-1.096,1.304-0.998l3.543,0.473c0.022,0.002,0.044,0.004,0.065,0.004  c0.248,0,0.463-0.184,0.496-0.435c0.037-0.274-0.156-0.524-0.431-0.563l-3.541-0.471c0,0,0,0-0.001,0s-0.001,0-0.002,0l-4.566-0.608  l0.903-1.175l5.282,0.703c0.021,0.002,0.044,0.004,0.066,0.004c0.246,0,0.461-0.184,0.494-0.435c0.037-0.274-0.156-0.524-0.43-0.563  l-4.82-0.642c0.077-0.231,0.108-0.479,0.076-0.729c-0.027-0.207-0.094-0.402-0.191-0.581l4.466,0.595  c0.022,0.003,0.044,0.004,0.065,0.004c0.248,0,0.463-0.183,0.495-0.434c0.037-0.274-0.155-0.525-0.43-0.563l-4.322-0.575  c0.119-0.021,0.236-0.05,0.353-0.098c0.406-0.167,0.722-0.482,0.89-0.887c0.019-0.047,0.028-0.094,0.043-0.141l3.491,0.465  c0.021,0.002,0.044,0.004,0.066,0.004c0.246,0,0.461-0.184,0.494-0.435c0.037-0.274-0.156-0.524-0.43-0.563l-2.521-0.336  c0.268-0.178,0.496-0.404,0.621-0.709c0.065-0.157,0.098-0.321,0.113-0.487l6.4,0.853c0.281,0.037,0.552,0.144,0.783,0.307  l4.043,2.85l-0.879,6.598L35.141,36.297z M43.934,36.261l-4.668-0.622l1.006-7.555l4.668,0.621L43.934,36.261z"/>
<circle style="fill:#2d3cb1;" cx="41.768" cy="34.688" r="0.929"/>
<circle style="fill:#2d3cb1;" cx="19.792" cy="5.666" r="0.928"/>
<!-- <text x="0" y="63" fill="#000000" font-size="5px" font-weight="bold" font-family="'Helvetica Neue', Helvetica, Arial-Unicode, Arial, Sans-serif">
Created by Pham Duy Phuong Hung</text>
<text x="0" y="68" fill="#000000" font-size="5px" font-weight="bold" font-family="'Helvetica Neue', Helvetica, Arial-Unicode, Arial, Sans-serif">
from the Noun Project</text> -->
</svg>
